<svg width="157" height="138" viewBox="0 0 157 138" fill="none" xmlns="http://www.w3.org/2000/svg">
<path d="M0 28L3.648 7.264L11.784 0.351998H37.128L35.496 9.568H26.28L27.096 4.96H15.576L12.864 7.264L11.664 14.176H34.704L33.888 18.784H10.848L9.216 28H0ZM56.8958 23.392L59.6078 21.088L62.4398 4.96H50.9198L48.2078 7.264L45.3758 23.392H56.8958ZM35.3438 28L38.9918 7.264L47.1278 0.351998H72.4718L68.8238 21.088L60.6877 28H35.3438ZM70.6875 28L74.3355 7.264L82.4715 0.351998H107.816L105.776 11.872L97.6635 18.784H99.9675L101.456 23.392H103.76L102.944 28H93.7275L90.7515 18.784H86.1435L86.9595 14.176H93.8715L96.5595 11.872L97.7835 4.96H86.2635L83.5515 7.264L79.9035 28H70.6875ZM0 83L4.872 55.352H44.04L49.728 62.264L46.08 83H36.864L40.512 62.264L38.616 59.96H31.704L27.648 83H18.432L22.488 59.96H13.272L9.216 83H0ZM56.0839 83L50.3959 76.088L54.0439 55.352H63.2599L59.6119 76.088L61.5079 78.392H73.0279L77.0839 55.352H86.2999L81.4279 83H56.0839ZM84.5156 83L91.0196 46.136H100.236L94.5476 78.392H108.372L109.188 73.784H118.404L116.772 83H84.5156ZM119.859 83L123.507 62.264L131.643 55.352H156.987L152.115 83H142.899L146.955 59.96H135.435L132.723 62.264L129.891 78.392H139.107L138.291 83H119.859ZM0 138L3.648 117.264L11.784 110.352H37.128L35.904 117.264L30.48 121.872L34.296 126.48L33.48 131.088L25.344 138H13.824L14.64 133.392H21.552L24.264 131.088L25.08 126.48L23.184 124.176H16.272L17.064 119.568H23.976L26.688 117.264L27.096 114.96H15.576L12.864 117.264L9.216 138H0ZM35.3438 138L38.9918 117.264L47.1278 110.352H72.4718L70.4318 121.872L62.3198 128.784H50.7998L51.6158 124.176H58.5278L61.2158 121.872L62.4398 114.96H50.9198L48.2078 117.264L45.3758 133.392H68.4158L67.5998 138H35.3438ZM77.5995 138L71.9115 131.088L77.1915 101.136H86.4075L84.7755 110.352H93.9915L93.1755 114.96H83.9595L81.1275 131.088L83.0235 133.392H89.9355L89.1195 138H77.5995Z" fill="#FF2323"/>
</svg>
