<svg width="356" height="37" viewBox="0 0 356 37" fill="none" xmlns="http://www.w3.org/2000/svg">
<path d="M0 37L3.648 16.264L11.784 9.352H37.128L35.496 18.568H26.28L27.096 13.96H15.576L12.864 16.264L11.664 23.176H34.704L33.888 27.784H10.848L9.216 37H0ZM56.8958 32.392L59.6078 30.088L62.4398 13.96H50.9198L48.2078 16.264L45.3758 32.392H56.8958ZM35.3438 37L38.9918 16.264L47.1278 9.352H72.4718L68.8238 30.088L60.6877 37H35.3438ZM70.6875 37L74.3355 16.264L82.4715 9.352H107.816L105.776 20.872L97.6635 27.784H99.9675L101.456 32.392H103.76L102.944 37H93.7275L90.7515 27.784H86.1435L86.9595 23.176H93.8715L96.5595 20.872L97.7835 13.96H86.2635L83.5515 16.264L79.9035 37H70.6875ZM106.031 37L110.903 9.352H150.071L155.759 16.264L152.111 37H142.895L146.543 16.264L144.647 13.96H137.735L133.679 37H124.463L128.519 13.96H119.303L115.247 37H106.031ZM162.115 37L156.427 30.088L160.075 9.352H169.291L165.643 30.088L167.539 32.392H179.059L183.115 9.352H192.331L187.459 37H162.115ZM190.547 37L197.051 0.136H206.267L200.579 32.392H214.403L215.219 27.784H224.435L222.803 37H190.547ZM225.891 37L229.539 16.264L237.675 9.352H263.019L258.147 37H248.931L252.987 13.96H241.467L238.755 16.264L235.923 32.392H245.139L244.323 37H225.891ZM261.234 37L264.882 16.264L273.018 9.352H298.362L297.138 16.264L291.714 20.872L295.53 25.48L294.714 30.088L286.578 37H275.058L275.874 32.392H282.786L285.498 30.088L286.314 25.48L284.418 23.176H277.506L278.298 18.568H285.21L287.922 16.264L288.33 13.96H276.81L274.098 16.264L270.45 37H261.234ZM296.578 37L300.226 16.264L308.362 9.352H333.706L331.666 20.872L323.554 27.784H312.034L312.85 23.176H319.762L322.45 20.872L323.674 13.96H312.154L309.442 16.264L306.61 32.392H329.65L328.834 37H296.578ZM338.834 37L333.146 30.088L338.426 0.136H347.642L346.01 9.352H355.226L354.41 13.96H345.194L342.362 30.088L344.258 32.392H351.17L350.354 37H338.834Z" fill="#FF2323"/>
</svg>
