<svg width="312" height="276" viewBox="0 0 312 276" fill="none" xmlns="http://www.w3.org/2000/svg">
<path d="M0 56L7.296 14.528L23.568 0.703997H74.256L70.992 19.136H52.56L54.192 9.92H31.152L25.728 14.528L23.328 28.352H69.408L67.776 37.568H21.696L18.432 56H0ZM113.792 46.784L119.216 42.176L124.88 9.92H101.84L96.4155 14.528L90.7515 46.784H113.792ZM70.6875 56L77.9835 14.528L94.2555 0.703997H144.944L137.648 42.176L121.375 56H70.6875ZM141.375 56L148.671 14.528L164.943 0.703997H215.631L211.551 23.744L195.327 37.568H199.935L202.911 46.784H207.519L205.887 56H187.455L181.503 37.568H172.287L173.919 28.352H187.743L193.119 23.744L195.567 9.92H172.527L167.103 14.528L159.807 56H141.375ZM212.062 56L221.807 0.703997H300.143L311.519 14.528L304.223 56H285.791L293.087 14.528L289.295 9.92H275.471L267.359 56H248.927L257.039 9.92H238.607L230.495 56H212.062ZM13.824 166L2.448 152.176L9.744 110.704H28.176L20.88 152.176L24.672 156.784H47.712L55.824 110.704H74.256L64.512 166H13.824ZM70.6875 166L83.6955 92.272H102.128L90.7515 156.784H118.4L120.031 147.568H138.464L135.2 166H70.6875ZM141.375 166L148.671 124.528L164.943 110.704H215.631L205.887 166H187.455L195.567 119.92H172.527L167.103 124.528L161.439 156.784H179.871L178.239 166H141.375ZM0 276L7.296 234.528L23.568 220.704H74.256L71.808 234.528L60.96 243.744L68.592 252.96L66.96 262.176L50.688 276H27.648L29.28 266.784H43.104L48.528 262.176L50.16 252.96L46.368 248.352H32.544L34.128 239.136H47.952L53.376 234.528L54.192 229.92H31.152L25.728 234.528L18.432 276H0ZM70.6875 276L77.9835 234.528L94.2555 220.704H144.944L140.864 243.744L124.64 257.568H101.6L103.232 248.352H117.056L122.432 243.744L124.88 229.92H101.84L96.4155 234.528L90.7515 266.784H136.832L135.2 276H70.6875ZM155.199 276L143.823 262.176L154.383 202.272H172.815L169.551 220.704H187.983L186.351 229.92H167.919L162.255 262.176L166.047 266.784H179.871L178.239 276H155.199Z" fill="white"/>
</svg>
